{"title":"7.Lives.2011.DVDRip.Xvid-P2P","uid":6739630,"size":1089132687,"categoryP":"video","categoryS":"movies","magnet":"?xt=urn:btih:9e1ed47e6a3a691120436c2d98e9c32d1777db3d&amp;dn=7.Lives.2011.DVDRip.Xvid-P2P&amp;tr=udp%3A%2F%2Ftracker.openbittorrent.com%3A80&amp;tr=udp%3A%2F%2Fopen.demonii.com%3A1337&amp;tr=udp%3A%2F%2Ftracker.coppersurfer.tk%3A6969&amp;tr=udp%3A%2F%2Fexodus.desync.com%3A6969","seeders":1,"leechers":0,"uploader":".BONE.","files":2,"time":1318446877,"description":" &lt;a href=&quot;http://img690.imageshack.us/img690/6183/vlcsnap2011101201h49m40.png&quot; rel=&quot;nofollow&quot; target=&quot;_NEW&quot;&gt;http://img690.imageshack.us/img690/6183/vlcsnap2011101201h49m40.png&lt;/a&gt;\n &lt;a href=&quot;\nhttp://img803.imageshack.us/img803/6872/64439361.png&quot; rel=&quot;nofollow&quot; target=&quot;_NEW&quot;&gt;\nhttp://img803.imageshack.us/img803/6872/64439361.png&lt;/a&gt;\n &lt;a href=&quot;\nhttp://img40.imageshack.us/img40/9013/vlcsnap2011101200h42m34.png&quot; rel=&quot;nofollow&quot; target=&quot;_NEW&quot;&gt;\nhttp://img40.imageshack.us/img40/9013/vlcsnap2011101200h42m34.png&lt;/a&gt;\n &lt;a href=&quot;\nhttp://img854.imageshack.us/img854/5451/vlcsnap2011101200h41m33.png&quot; rel=&quot;nofollow&quot; target=&quot;_NEW&quot;&gt;\nhttp://img854.imageshack.us/img854/5451/vlcsnap2011101200h41m33.png&lt;/a&gt;\n &lt;a href=&quot;\nhttp://img13.imageshack.us/img13/8397/vlcsnap2011101200h43m26.png&quot; rel=&quot;nofollow&quot; target=&quot;_NEW&quot;&gt;\nhttp://img13.imageshack.us/img13/8397/vlcsnap2011101200h43m26.png&lt;/a&gt;\n\nSTORYSAYS\n\nTom, a married man with kids, is struggling at work when a client tries to seduce him with promises of a 'more exciting life'. On his way home one night he gets attacked by a gang of hoodies and falls into a parallel world where he lives 5 other lives including a Rock-Star, a Homeless person and the 'hoody' that attacked him. These lives help him to re-evaluate his priorities and values but in order to get home he must face some of his deepest desires and fears. Will he make it home or is the grass greener on the other side? \n\nCAST\n\nKate Ashfield, Danny Dyer, Anna Skellern, Mary Stockley, Tom Goodman-Hill, Theo Bartholmew-mews, Martin Compston, Craig Conway, Michael Elwyn\nINFO\n &lt;a href=&quot;\nhttp://www.imdb.com/title/tt1558246/&quot; rel=&quot;nofollow&quot; target=&quot;_NEW&quot;&gt;\nhttp://www.imdb.com/title/tt1558246/&lt;/a&gt;\n\n\nGeneral\nComplete name : 7 Lives 2011.Title2 dvdrip.avi\nFormat : AVI\nFormat/Info : Audio Video Interleave\nFormat profile : OpenDML\nFile size : 1.01 GiB\nDuration : 1h 35mn\nOverall bit rate : 1 521 Kbps\n\n\n\nVideo\nID : 0\nFormat : MPEG-4 Visual\nFormat profile : Advanced Simple@L5\nFormat settings, BVOP : 2\nFormat settings, QPel : No\nFormat settings, GMC : No warppoints\nFormat settings, Matrix : Default (H.263)\nMuxing mode : Packed bitstream\nCodec ID : DX50\nCodec ID/Hint : DivX 5\nDuration : 1h 35mn\nBit rate : 91.8 Kbps\nWidth : 720 pixels\nHeight : 406 pixels\nDisplay aspect ratio : 16:9\nFrame rate : 25.000 fps\nColor space : YUV\nChroma subsampling : 4:2:0\nBit depth : 8 bits\nScan type : Progressive\nCompression mode : Lossy\nBits/(Pixel*Frame) : 0.013\nStream size : 62.7 MiB (6%)\nWriting library : XviD 1.2.1 (UTC 2008-12-04)\n\nAudio\nID : 1\nFormat : MPEG Audio\nFormat version : Version 1\nFormat profile : Layer 3\nMode : Joint stereo\nMode extension : MS Stereo\nCodec ID : 55\nCodec ID/Hint : MP3\nDuration : 1h 35mn\nBit rate mode : Constant\nBit rate : 64.0 Kbps\nChannel(s) : 2 channels\nSampling rate : 48.0 KHz\nCompression mode : Lossy\nStream size : 223 KiB (0%)\nAlignment : Aligned on interleaves\nInterleave, duration : 301 ms (7.52 video frames)\n\nRun time : 1 hr 30 mins\n\nGenres Thriller\n\nLanguage : English\n\nUk Release 2011\n\n","torrent":{"xt":"urn:btih:9e1ed47e6a3a691120436c2d98e9c32d1777db3d","amp;dn":"7.Lives.2011.DVDRip.Xvid-P2P","amp;tr":["udp%3A%2F%2Ftracker.openbittorrent.com%3A80","udp%3A%2F%2Fopen.demonii.com%3A1337","udp%3A%2F%2Ftracker.coppersurfer.tk%3A6969","udp%3A%2F%2Fexodus.desync.com%3A6969"],"infoHash":"9e1ed47e6a3a691120436c2d98e9c32d1777db3d","infoHashBuffer":{"type":"Buffer","data":[158,30,212,126,106,58,105,17,32,67,108,45,152,233,195,45,23,119,219,61]},"announce":[],"urlList":[]}}